<svg width="53" height="62" viewBox="0 0 53 62" fill="none" xmlns="http://www.w3.org/2000/svg">
<path id="Vector" d="M30.4407 35.4272C30.7887 35.3992 31.0701 35.3723 31.3515 35.3543C31.4947 35.3453 31.5524 35.4062 31.5385 35.555C31.4967 36.0104 31.447 36.4637 31.3993 36.9181C31.3535 37.3574 31.2958 37.7948 31.26 38.2342C31.1533 39.6171 31.1105 41.0043 31.1318 42.3912C31.1417 43.26 31.1875 44.1247 31.263 44.9875C31.3804 46.3386 31.5743 47.6787 31.8368 49.0087C32.3329 51.5331 33.0588 53.9916 33.9228 56.4121C34.4598 57.915 35.1359 59.3519 36.0159 60.686C36.1322 60.8618 36.1352 60.9966 36.0179 61.1533C36.0079 61.1663 36.001 61.1803 35.993 61.1933C35.9125 61.3211 35.8667 61.3401 35.7206 61.3121C35.3666 61.2442 35.0136 61.1723 34.6586 61.1104C34.2579 61.0405 33.8751 61.1184 33.5142 61.2901C33.273 61.4045 33.0383 61.5322 32.8112 61.6726C32.3389 61.9642 31.8417 62.0021 31.3157 61.8663C30.5551 61.6686 29.8243 61.379 29.0944 61.0964C27.5433 60.4943 25.9991 59.8782 24.4519 59.266C23.0072 58.6939 21.5267 58.2215 20.06 57.7123C18.4592 57.1571 16.8583 56.6029 15.2396 56.1046C14.2502 55.8 13.2609 55.4945 12.2785 55.1669C11.7137 54.9792 11.1619 54.7505 10.608 54.5328C10.3445 54.429 10.095 54.2892 9.82849 54.1993C9.1454 53.9696 8.57266 53.5602 8.01882 53.1169C7.2532 52.5047 6.59496 51.7888 5.9765 51.0298C5.6782 50.6644 5.36698 50.3089 5.05178 49.9584C4.84848 49.7393 4.67586 49.4934 4.5387 49.2274C3.56527 47.2822 2.67933 45.3001 1.99027 43.234C1.50206 41.7691 1.15504 40.2663 0.893537 38.7434C0.565411 36.8242 0.479896 34.893 0.513703 32.9507C0.533589 31.8453 0.615125 30.7459 0.746375 29.6515C0.985011 27.6464 1.38871 25.6732 1.94652 23.733C3.16357 19.505 4.99908 15.5706 7.50974 11.9598C8.97091 9.84686 10.6702 7.91046 12.5738 6.18909C14.2201 4.7007 16.0449 3.42433 18.0058 2.38954C18.7286 2.00808 19.4446 1.62064 20.2102 1.33205C20.8127 1.10637 21.4183 0.888686 22.0507 0.762866C22.2346 0.726918 22.4285 0.722923 22.6055 0.666005C23.0758 0.516219 23.5362 0.566146 23.9876 0.720925C24.2173 0.80081 24.443 0.82278 24.6806 0.797816C24.7741 0.78783 24.8696 0.787829 24.963 0.77984C27.4061 0.598101 29.5399 1.33804 31.3774 2.95672C32.5139 3.95829 33.376 5.17055 34.074 6.50863C34.7978 7.89864 35.3099 9.36854 35.6659 10.8924C35.8369 11.6273 35.9632 12.3742 36.1103 13.1152C36.1573 13.3165 36.1341 13.528 36.0447 13.7143C35.9542 13.896 35.8628 14.0778 35.7683 14.2585C35.7623 14.2685 35.7017 14.2675 35.6977 14.2585C35.6809 14.2148 35.6695 14.1692 35.6639 14.1227C35.5319 13.1075 35.3454 12.1001 35.1051 11.105C34.7173 9.55527 34.1843 8.06241 33.4098 6.66141C32.851 5.64886 32.1828 4.7182 31.3495 3.91435C30.3115 2.91378 29.1123 2.19082 27.7123 1.82534C27.0761 1.65032 26.4192 1.56264 25.7595 1.56472C25.7296 1.56472 25.6998 1.5787 25.67 1.58569C25.6849 1.62363 25.6909 1.67057 25.7177 1.69653C25.7843 1.76343 25.8629 1.81636 25.9315 1.88226C26.1005 2.04503 26.2725 2.2078 26.4346 2.37855C26.6733 2.63019 26.8443 2.92577 27.0153 3.22933C27.6497 4.35572 27.9291 5.56598 27.948 6.84914C27.9639 7.91362 27.7879 8.95113 27.5105 9.97467C27.1774 11.2089 26.71 12.3942 26.2039 13.5655C25.3547 15.5141 24.4259 17.4266 23.4198 19.2983C21.998 21.9645 20.5532 24.6207 19.1214 27.2809C18.8678 27.7532 18.6402 28.2385 18.5049 28.7598C18.4612 28.9255 18.4413 29.0993 18.4254 29.271C18.4138 29.3973 18.432 29.5246 18.4785 29.6426C18.5249 29.7605 18.5984 29.8659 18.6928 29.9501C18.8062 30.0589 18.9275 30.1597 19.0548 30.2516C19.2964 30.4254 19.546 30.5901 19.7926 30.7579C21.4899 31.9162 22.8163 33.3991 23.7171 35.2574L23.8852 35.597C24.1019 36.0423 24.0035 36.0333 24.5971 35.9564C25.313 35.8656 26.0279 35.7727 26.7448 35.7008C27.5105 35.6239 28.2761 35.571 29.0417 35.5071C29.2406 35.4911 29.2704 35.4681 29.3082 35.2515C29.3559 34.9719 29.3947 34.6913 29.4325 34.4107C29.6426 32.8973 29.942 31.3978 30.3294 29.9201C31.1318 26.8125 32.2593 23.8288 33.7707 20.9969C35.5853 17.5918 37.8554 14.5341 40.6852 11.9099C43.3898 9.40349 46.4393 7.44629 49.9025 6.16413C50.4753 5.95243 51.0619 5.77668 51.6436 5.58995C51.7328 5.56259 51.8257 5.54912 51.919 5.55001C52.0264 5.55001 52.1268 5.64587 52.1537 5.74972C52.1845 5.86655 52.1676 5.98339 52.0702 6.04929C51.9697 6.11919 51.8494 6.16213 51.7321 6.20207C51.2121 6.37882 50.6861 6.53659 50.171 6.72532C47.6464 7.652 45.3307 8.96212 43.1979 10.5998C40.363 12.7767 38.0075 15.3969 36.0447 18.3806C33.9 21.64 32.3279 25.1639 31.2451 28.9115C30.7482 30.6198 30.3655 32.3595 30.0997 34.1191C30.047 34.4776 29.9863 34.8351 29.9366 35.1935C29.9108 35.3783 29.9565 35.4262 30.1295 35.4272H30.4407ZM1.13118 32.4135H1.11029C1.11029 32.8229 1.1093 33.2323 1.11129 33.6428C1.11129 33.6887 1.13118 33.7336 1.14311 33.7786C1.19979 33.7586 1.2664 33.7526 1.31214 33.7187C1.48714 33.5838 1.65021 33.4361 1.8262 33.3042C1.90774 33.2423 1.99822 33.1205 2.10461 33.1944C2.15632 33.2313 2.15235 33.3692 2.15036 33.46C2.1245 34.8201 2.28459 36.1641 2.49539 37.5042C2.61073 38.2352 2.72407 38.9651 2.72407 39.7111C2.72407 40.1814 2.76882 40.6557 2.81655 41.125C2.94183 42.3483 3.16356 43.5556 3.41711 44.7588C3.53246 45.306 3.81583 45.7394 4.13799 46.1668C4.16285 46.1998 4.22848 46.1778 4.24737 46.1309C4.26328 46.0879 4.28118 46.044 4.29411 45.9991C4.42635 45.5148 4.5576 45.0285 4.69184 44.5441C4.70959 44.4845 4.73289 44.4266 4.76144 44.3714C4.83701 44.2176 4.92052 44.0668 4.9941 43.911C5.39382 43.0623 5.89596 42.2874 6.60093 41.6593C7.72153 40.6597 9.02707 40.3212 10.4917 40.5968C10.8288 40.6607 11.1499 40.8135 11.487 40.8674C11.7505 40.9094 11.9583 41.0232 12.1632 41.171C12.3421 41.2998 12.5231 41.4236 12.7021 41.5504C13.6653 42.2355 14.4942 43.0934 15.1471 44.0808C15.8282 45.0943 16.3264 46.1958 16.7251 47.3461C17.098 48.4166 17.3943 49.51 17.6796 50.6075C17.9223 51.5361 18.1698 52.4648 18.4244 53.3895C18.5457 53.8308 18.7088 54.2562 18.9136 54.6676C19.2019 55.2458 19.6484 55.6422 20.2559 55.8519C20.5661 55.9588 20.8823 56.0556 21.1985 56.1445C23.1017 56.6738 25.0316 57.1002 26.9527 57.5565C27.243 57.6254 27.5343 57.6823 27.8267 57.7412C27.8993 57.7562 27.9529 57.6943 27.9261 57.6334C27.9135 57.6048 27.8996 57.5768 27.8843 57.5495C27.4737 56.8205 27.1734 56.0417 26.887 55.2568C26.2556 53.5243 25.7595 51.7518 25.3061 49.9654C24.9722 48.6694 24.7346 47.3503 24.5951 46.019C24.5544 45.6126 24.5852 45.1992 24.4738 44.7988C24.4558 44.7054 24.4565 44.6093 24.4758 44.5162C24.5414 44.0658 24.5792 43.6075 24.6876 43.1681C24.8596 42.4671 24.9073 41.7721 24.7622 41.0641C24.7433 40.9723 24.7423 40.8764 24.7343 40.7825C24.7025 40.453 24.6767 40.1235 24.6359 39.7939C24.619 39.6561 24.6021 39.4984 24.5285 39.3875C24.3635 39.1419 24.3187 38.8673 24.272 38.5887C24.1869 38.0435 24.0342 37.5111 23.8176 37.0039C23.6098 36.5276 23.4049 36.0503 23.1832 35.581C22.4484 34.0282 21.3815 32.744 20.0292 31.6965C19.6941 31.4369 19.3332 31.2122 18.9892 30.9626C18.7485 30.7878 18.5019 30.6151 18.2852 30.4114C17.8775 30.0289 17.7303 29.5496 17.8198 28.9934C17.8715 28.6826 17.9555 28.378 18.0704 28.0847C18.32 27.4357 18.6541 26.8295 18.9852 26.2204C20.0431 24.2702 21.113 22.326 22.159 20.3678C23.3154 18.2009 24.4331 16.015 25.4343 13.7702C25.9275 12.6628 26.3809 11.5394 26.7468 10.3821C27.1595 9.07895 27.3872 7.75285 27.3027 6.38082C27.2653 5.71918 27.1296 5.06688 26.9 4.44559C26.4406 3.21336 25.6541 2.26671 24.4569 1.69553C23.7331 1.34903 22.9804 1.18326 22.174 1.364C21.6678 1.47784 21.1767 1.63362 20.6894 1.81037C19.9646 2.07299 19.2785 2.41949 18.5875 2.75801C17.2571 3.40907 15.9903 4.16 14.8299 5.08467C14.462 5.37925 14.1011 5.68381 13.7401 5.98838C11.8757 7.56261 10.1976 9.34678 8.73872 11.3058C6.32053 14.5451 4.47507 18.094 3.16058 21.9216C2.52345 23.7674 2.03108 25.6605 1.68799 27.5834C1.5289 28.4822 1.40561 29.3879 1.29822 30.2946C1.21868 30.9975 1.18587 31.7065 1.13118 32.4135Z" fill="black"/>
</svg>
