<svg width="52" height="62" viewBox="0 0 52 62" fill="none" xmlns="http://www.w3.org/2000/svg">
<path id="Vector" d="M21.8039 35.4272C21.4559 35.3992 21.1745 35.3723 20.8931 35.3543C20.7499 35.3453 20.6923 35.4062 20.7062 35.555C20.7479 36.0104 20.7976 36.4637 20.8444 36.9181C20.8911 37.3574 20.9488 37.7948 20.9846 38.2342C21.0989 39.6172 21.1268 41.0032 21.1128 42.3912C21.1024 43.258 21.0586 44.1241 20.9816 44.9875C20.863 46.3374 20.6715 47.6798 20.4079 49.0087C19.9107 51.5331 19.1849 53.9916 18.3218 56.4121C17.7849 57.915 17.1087 59.3519 16.2288 60.686C16.1124 60.8618 16.1094 60.9966 16.2268 61.1533C16.2367 61.1663 16.2436 61.1803 16.2516 61.1933C16.3321 61.3211 16.3779 61.3401 16.5241 61.3121C16.878 61.2442 17.231 61.1723 17.586 61.1104C17.9867 61.0405 18.3695 61.1184 18.7305 61.2901C18.9721 61.404 19.2067 61.5328 19.4334 61.6726C19.9057 61.9642 20.4029 62.0021 20.9289 61.8663C21.6896 61.6686 22.4194 61.379 23.1502 61.0964C24.7014 60.4943 26.2455 59.8782 27.7927 59.266C29.2375 58.6939 30.717 58.2215 32.1846 57.7123C33.7855 57.1571 35.3853 56.6029 37.005 56.1046C37.9944 55.8 38.9838 55.4945 39.9661 55.1669C40.5309 54.9792 41.0827 54.7505 41.6376 54.5328C41.9001 54.429 42.1497 54.2892 42.4161 54.1993C43.0992 53.9696 43.672 53.5602 44.2258 53.1169C44.9914 52.5047 45.6497 51.7888 46.2682 51.0298C46.5665 50.6644 46.8777 50.3089 47.1929 49.9584C47.3947 49.7347 47.5707 49.497 47.7059 49.2274C48.6794 47.2822 49.5663 45.3001 50.2544 43.234C50.7426 41.7691 51.0906 40.2663 51.3511 38.7434C51.6792 36.8242 51.7637 34.893 51.7309 32.9507C51.7092 31.8477 51.6315 30.7466 51.4982 29.6515C51.2584 27.6493 50.857 25.6699 50.2981 23.733C49.0811 19.505 47.2466 15.5706 44.7349 11.9598C43.2738 9.84685 41.5745 7.91044 39.6708 6.18909C38.0245 4.70073 36.1997 3.42437 34.2389 2.38954C33.516 2.00808 32.8001 1.62064 32.0345 1.33205C31.4319 1.10637 30.8264 0.888686 30.194 0.762866C30.009 0.726918 29.8161 0.722923 29.6392 0.666005C29.1688 0.516219 28.7085 0.566146 28.257 0.720925C28.0273 0.80081 27.8006 0.82278 27.564 0.797816C27.4705 0.78783 27.376 0.787829 27.2816 0.77984C24.8385 0.598101 22.7038 1.33804 20.8672 2.95672C19.7307 3.95829 18.8687 5.17055 18.1707 6.50863C17.4468 7.89864 16.9347 9.36854 16.5788 10.8924C16.4077 11.6273 16.2815 12.3742 16.1333 13.1152C16.0871 13.3167 16.1106 13.528 16.1999 13.7143C16.2904 13.896 16.3818 14.0778 16.4763 14.2585C16.4823 14.2685 16.5429 14.2675 16.5469 14.2585C16.5637 14.2148 16.5751 14.1692 16.5808 14.1227C16.721 13.1082 16.8909 12.0996 17.1395 11.105C17.5273 9.55527 18.0603 8.06241 18.8339 6.66141C19.3937 5.64886 20.0619 4.7182 20.8951 3.91435C21.9332 2.91378 23.1323 2.19082 24.5323 1.82534C25.1685 1.65032 25.8255 1.56264 26.4852 1.56472C26.515 1.56472 26.5448 1.5787 26.5757 1.58569C26.5598 1.62363 26.5538 1.67057 26.5269 1.69653C26.4603 1.76343 26.3807 1.81636 26.3131 1.88226C26.1431 2.04503 25.9721 2.2078 25.81 2.37855C25.5704 2.63019 25.4004 2.92577 25.2293 3.22933C24.595 4.35572 24.3155 5.56598 24.2966 6.84914C24.2807 7.91362 24.4567 8.95113 24.7332 9.97467C25.0672 11.2089 25.5346 12.3942 26.0407 13.5655C26.8897 15.5142 27.8185 17.4267 28.8248 19.2983C30.2467 21.9645 31.6904 24.6207 33.1232 27.2809C33.3768 27.7532 33.6045 28.2385 33.7397 28.7598C33.7834 28.9255 33.8034 29.0993 33.8183 29.271C33.83 29.3973 33.8119 29.5245 33.7656 29.6424C33.7193 29.7604 33.6461 29.8658 33.5518 29.9501C33.4384 30.0589 33.3171 30.1597 33.1899 30.2516C32.9472 30.4254 32.6987 30.5901 32.4521 30.7579C30.7548 31.9162 29.4283 33.3991 28.5265 35.2574C28.4718 35.3713 28.4151 35.4831 28.3594 35.597C28.1427 36.0423 28.2411 36.0333 27.6475 35.9564C26.9316 35.8656 26.2167 35.7727 25.4988 35.7008C24.7342 35.6239 23.9676 35.571 23.2019 35.5071C23.0031 35.4911 22.9732 35.4681 22.9364 35.2515C22.89 34.972 22.8486 34.6916 22.8121 34.4107C22.6021 32.8973 22.3026 31.3978 21.9153 29.9201C21.1129 26.8125 19.9843 23.8288 18.4739 20.9969C16.6593 17.5918 14.3892 14.5341 11.5594 11.9099C8.85484 9.40349 5.8053 7.44629 2.34208 6.16413C1.76935 5.95243 1.18267 5.77668 0.600991 5.58995C0.511752 5.56259 0.418888 5.54912 0.325587 5.55001C0.218201 5.55001 0.117751 5.64587 0.0909047 5.74972C0.0600808 5.86655 0.076992 5.98339 0.173441 6.04929C0.274862 6.11919 0.395178 6.16213 0.512508 6.20207C1.03254 6.37882 1.55854 6.53659 2.0736 6.72532C4.59818 7.652 6.91295 8.96212 9.04676 10.5998C11.8816 12.7767 14.2371 15.3969 16.1999 18.3806C18.3446 21.64 19.9167 25.1639 20.9995 28.9115C21.4959 30.6199 21.8783 32.3596 22.1439 34.1191C22.1976 34.4776 22.2573 34.8351 22.308 35.1935C22.3338 35.3783 22.2881 35.4262 22.1151 35.4272H21.8039ZM51.1124 32.4145H51.1343C51.1343 32.8239 51.1354 33.2333 51.1334 33.6438C51.1324 33.6897 51.1124 33.7346 51.1015 33.7796C51.0448 33.7596 50.9782 33.7536 50.9325 33.7196C50.7575 33.5848 50.5944 33.4371 50.4184 33.3052C50.3369 33.2433 50.2464 33.1215 50.14 33.1954C50.0883 33.2323 50.0923 33.3701 50.0943 33.461C50.1201 34.8211 49.96 36.1651 49.7493 37.5052C49.6339 38.2362 49.5195 38.9661 49.5195 39.7121C49.5195 40.1824 49.4758 40.6567 49.4281 41.126C49.3028 42.3493 49.0811 43.5566 48.8275 44.7598C48.7122 45.307 48.4288 45.7404 48.1067 46.1678C48.0818 46.2008 48.0151 46.1788 47.9972 46.1319C47.9803 46.0889 47.9624 46.045 47.9505 46.0001C47.8183 45.5158 47.687 45.0294 47.5538 44.5451C47.5356 44.4856 47.5123 44.4278 47.4842 44.3724C47.4076 44.2186 47.3241 44.0678 47.2505 43.912C46.8508 43.0633 46.3477 42.2884 45.6437 41.6603C44.5221 40.6607 43.2176 40.3222 41.7529 40.5978C41.4159 40.6617 41.0947 40.8145 40.7576 40.8684C40.4942 40.9104 40.2863 41.0242 40.0815 41.172C39.9035 41.3008 39.7215 41.4246 39.5416 41.5514C38.5788 42.2367 37.7503 43.0945 37.0975 44.0818C36.4164 45.0953 35.9183 46.1968 35.5196 47.3471C35.1467 48.4176 34.8504 49.511 34.564 50.6085C34.3224 51.5371 34.0748 52.4658 33.8202 53.3905C33.6991 53.8315 33.5352 54.2596 33.331 54.6686C33.0427 55.2468 32.5962 55.6432 31.9897 55.8529C31.6785 55.9598 31.3633 56.0566 31.0461 56.1455C29.142 56.6748 27.213 57.1012 25.2909 57.5575C25.0016 57.6264 24.7093 57.6833 24.4179 57.7422C24.3454 57.7572 24.2917 57.6953 24.3185 57.6344C24.3315 57.6064 24.3444 57.5775 24.3593 57.5505C24.771 56.8215 25.0712 56.0427 25.3576 55.2578C25.989 53.5253 26.4852 51.7528 26.9386 49.9664C27.2687 48.6682 27.5133 47.3541 27.6485 46.02C27.6903 45.6136 27.6594 45.2002 27.7708 44.7998C27.7888 44.7063 27.7877 44.6102 27.7678 44.5172C27.7032 44.0668 27.6654 43.6085 27.5571 43.1691C27.385 42.4681 27.3363 41.7731 27.4814 41.0651C27.5013 40.9733 27.5013 40.8774 27.5103 40.7835C27.5421 40.454 27.5679 40.1245 27.6087 39.7949C27.6256 39.6571 27.6415 39.4994 27.7161 39.3885C27.8812 39.1429 27.9259 38.8683 27.9726 38.5897C28.0574 38.0445 28.2097 37.5121 28.4261 37.0049C28.6349 36.5286 28.8397 36.0513 29.0615 35.582C29.7963 34.0292 30.8631 32.745 32.2144 31.6975C32.5495 31.4379 32.9114 31.2132 33.2545 30.9636C33.4961 30.7888 33.7417 30.6161 33.9585 30.4124C34.3661 30.0299 34.5143 29.5506 34.4248 28.9944C34.373 28.6836 34.289 28.379 34.1742 28.0857C33.9237 27.4367 33.5905 26.8305 33.2604 26.2214C32.2015 24.2712 31.1316 22.327 30.0856 20.3688C28.9292 18.2019 27.8106 16.016 26.8103 13.7712C26.3094 12.6677 25.8712 11.5365 25.4978 10.3831C25.0851 9.07995 24.8575 7.75385 24.942 6.38181C24.9792 5.72016 25.1149 5.06784 25.3447 4.44659C25.804 3.21435 26.5905 2.26771 27.7867 1.69653C28.5116 1.35002 29.2643 1.18426 30.0697 1.365C30.5768 1.47884 31.068 1.63462 31.5552 1.81136C32.2801 2.07399 32.9651 2.42049 33.6572 2.75901C34.9876 3.41007 36.2543 4.161 37.4137 5.08567C37.7826 5.38025 38.1435 5.68481 38.5045 5.98938C40.3685 7.56375 42.0463 9.3479 43.505 11.3068C45.9241 14.5461 47.7696 18.095 49.084 21.9226C49.7216 23.7683 50.214 25.6614 50.5567 27.5844C50.7157 28.4832 50.839 29.3889 50.9454 30.2956C51.027 30.9985 51.0587 31.7075 51.1124 32.4145Z" fill="black"/>
</svg>
